<?xml version="1.0" encoding="UTF-8"?>
<svg version="1.1" xmlns="http://www.w3.org/2000/svg" width="256" height="256">
<path d="M0 0 C84.48 0 168.96 0 256 0 C256 84.48 256 168.96 256 256 C171.52 256 87.04 256 0 256 C0 171.52 0 87.04 0 0 Z " fill="#111827" transform="translate(0,0)"/>
<path d="M0 0 C0.85964355 0.46317627 1.71928711 0.92635254 2.60498047 1.40356445 C3.64122559 1.92539307 4.6774707 2.44722168 5.74511719 2.98486328 C6.92642614 3.60734705 8.10619592 4.23275774 9.28466797 4.8605957 C9.9255687 5.19987091 10.56646942 5.53914612 11.22679138 5.88870239 C13.31284771 6.99472962 15.39655897 8.10508291 17.47998047 9.21606445 C18.19439301 9.59594513 18.90880554 9.97582581 19.64486694 10.36721802 C29.73644634 15.73578762 39.74009094 21.23641704 49.66333008 26.91137695 C58.52665807 31.96830346 67.54090092 36.7181651 76.60498047 41.40356445 C74.1964625 44.09787261 71.65068972 45.61513969 68.46826172 47.30200195 C67.42831055 47.85710449 66.38835937 48.41220703 65.31689453 48.98413086 C64.19508789 49.57629395 63.07328125 50.16845703 61.91748047 50.77856445 C60.14640514 51.7225648 58.37533443 52.66657403 56.60464478 53.61129761 C54.78667875 54.58061563 52.96759478 55.54781245 51.1484375 56.51489258 C45.86890699 59.3249566 40.61212017 62.17689604 35.35498047 65.02856445 C34.38302734 65.55401855 33.41107422 66.07947266 32.40966797 66.62084961 C27.38857351 69.33782332 22.38102604 72.07676938 17.39013672 74.84887695 C16.38692383 75.40365723 15.38371094 75.9584375 14.35009766 76.5300293 C12.44525255 77.58457641 10.54337081 78.64450065 8.64501953 79.71069336 C7.79262695 80.18168457 6.94023437 80.65267578 6.06201172 81.13793945 C5.31927002 81.55269531 4.57652832 81.96745117 3.8112793 82.39477539 C1.2916776 83.54681636 -0.6202573 84.2017159 -3.39501953 84.40356445 C-6.16796875 83.34643555 -6.16796875 83.34643555 -9.19970703 81.67700195 C-10.32868408 81.06381104 -11.45766113 80.45062012 -12.62084961 79.81884766 C-13.83742483 79.13908468 -15.05381024 78.45898191 -16.27001953 77.77856445 C-17.53201122 77.08626684 -18.79463338 76.39511738 -20.05786133 75.70507812 C-28.74855487 70.9415165 -37.37340879 66.05719875 -45.97338867 61.13208008 C-53.92733369 56.59860528 -62.02875021 52.37489116 -70.21264648 48.27197266 C-71.1248999 47.80750732 -72.03715332 47.34304199 -72.97705078 46.86450195 C-74.18711792 46.25807861 -74.18711792 46.25807861 -75.42163086 45.6394043 C-77.39501953 44.40356445 -77.39501953 44.40356445 -79.39501953 41.40356445 C-78.78319824 41.07259766 -78.17137695 40.74163086 -77.54101562 40.40063477 C-65.63806778 33.96049952 -53.74261991 27.50729995 -41.86743164 21.01611328 C-36.72546358 18.20917206 -31.5746845 15.4191507 -26.41455078 12.64575195 C-25.82446228 12.32853683 -25.23437378 12.01132172 -24.62640381 11.68449402 C-21.7386334 10.13259581 -18.84988283 8.5825565 -15.95996094 7.03466797 C-14.3944751 6.19440063 -14.3944751 6.19440063 -12.79736328 5.3371582 C-11.87431396 4.84272217 -10.95126465 4.34828613 -10.00024414 3.83886719 C-7.34467488 2.44241296 -7.34467488 2.44241296 -4.86987305 0.59521484 C-2.39501953 -0.59643555 -2.39501953 -0.59643555 0 0 Z " fill="#FDFDFD" transform="translate(129.39501953125,45.596435546875)"/>
<path d="M0 0 C3.96456644 1.58582658 7.52815417 3.26770278 11.27734375 5.2734375 C11.87636002 5.59311493 12.47537628 5.91279236 13.09254456 6.24215698 C15.04231538 7.28374851 16.98996725 8.32923061 18.9375 9.375 C20.29681321 10.10265449 21.65618881 10.83019247 23.015625 11.55761719 C34.37780353 17.64325006 45.69479594 23.80905492 57 30 C64.26 33.96 71.52 37.92 79 42 C79 67.74 79 93.48 79 120 C69.04653796 115.02326898 59.16268039 110.0281769 49.375 104.75 C48.16730292 104.10078756 46.95953793 103.45170146 45.75170898 102.80273438 C36.51270837 97.83410789 27.29858809 92.81998679 18.09765625 87.78125 C12.0780515 84.49699055 6.03761841 81.2510253 0 78 C0 52.26 0 26.52 0 0 Z " fill="#FDFDFD" transform="translate(47,91)"/>
<path d="M0 0 C0 25.41 0 50.82 0 77 C-8.58 81.62 -17.16 86.24 -26 91 C-34.15257319 95.44684506 -34.15257319 95.44684506 -42.3046875 99.89453125 C-43.20928711 100.38775879 -44.11388672 100.88098633 -45.04589844 101.38916016 C-47.16930436 102.54703059 -49.29230284 103.70564835 -51.41503906 104.86474609 C-54.3979477 106.49271867 -57.38367908 108.11541983 -60.37109375 109.73510742 C-62.0902259 110.66861724 -63.80685969 111.60672331 -65.5234375 112.54492188 C-67.09351563 113.39473633 -67.09351563 113.39473633 -68.6953125 114.26171875 C-69.62359863 114.76662842 -70.55188477 115.27153809 -71.50830078 115.79174805 C-74 117 -74 117 -78 118 C-78 92.59 -78 67.18 -78 41 C-69.42 36.38 -60.84 31.76 -52 27 C-43.78115116 22.52133744 -43.78115116 22.52133744 -35.56640625 18.03515625 C-31.51751867 15.82381259 -27.46170102 13.62565846 -23.40234375 11.43359375 C-22.3035791 10.84006104 -21.20481445 10.24652832 -20.07275391 9.63500977 C-17.94158447 8.48452298 -15.80977478 7.33522119 -13.67724609 6.18725586 C-12.7177002 5.6691333 -11.7581543 5.15101074 -10.76953125 4.6171875 C-9.49493042 3.93052002 -9.49493042 3.93052002 -8.19458008 3.22998047 C-2.43152044 0 -2.43152044 0 0 0 Z " fill="#FEFEFE" transform="translate(208,92)"/>
</svg>
